<?xml version="1.0" encoding="utf-8"?>
<!-- Svg Vector Icons : http://www.onlinewebfonts.com/icon -->
<!DOCTYPE svg PUBLIC "-//W3C//DTD SVG 1.1//EN" "http://www.w3.org/Graphics/SVG/1.1/DTD/svg11.dtd">
<svg version="1.1" xmlns="http://www.w3.org/2000/svg" xmlns:xlink="http://www.w3.org/1999/xlink" x="0px" y="0px" viewBox="0 0 1000 1000" enable-background="new 0 0 1000 1000" xml:space="preserve">
<metadata> Svg Vector Icons : http://www.onlinewebfonts.com/icon </metadata>
<g><g fill="rgb(63,81,181)" transform="translate(0.000000,512.000000) scale(0.100000,-0.100000)"><path d="M100,4369.2v-648.9l245-5.7l243.1-5.7l9.6-206.7c7.7-179.9,15.3-212.5,47.9-235.4c93.8-68.9,202.9-47.9,252.7,49.8c13.4,28.7,24.9,122.5,24.9,225.9v176.1h239.3h239.3v650.8V5020H750.8H100V4369.2z M1076.2,4369.2v-325.4H750.8H425.4v325.4v325.4h325.4h325.4V4369.2z"/><path d="M4349.2,4721.4v-300.5l-47.9,51.7l-45.9,49.8h-317.7c-289,0-319.7-3.8-354.1-38.3c-51.7-51.7-65.1-122.5-34.4-183.8c44-93.8,91.9-105.3,413.4-99.5l294.8,5.7l45.9,53.6l45.9,53.6V4017v-298.6H5000h650.8v237.3V4195l275.6,5.7c262.2,5.7,279.4,7.7,325.4,51.7c61.2,57.4,65.1,149.3,9.6,220.1l-38.3,49.8H5936h-285.2v248.8V5020H5000h-650.8V4721.4z M5325.4,4369.2v-325.4H5000h-325.4v325.4v325.4H5000h325.4V4369.2z"/><path d="M8598.4,4778.8v-239.3l-57.4-21.1c-151.2-51.7-139.7-264.1,15.3-310.1c40.2-13.4,42.1-21.1,42.1-252.7v-237.3h239.3H9077v-103.4c0-139.7,63.2-222,170.4-222c107.2,0,151.2,57.4,158.9,201l5.7,114.8l245,5.7l243.1,5.7v648.9V5020h-650.8h-650.8V4778.8z M9574.6,4369.2v-325.4h-325.4h-325.4v325.4v325.4h325.4h325.4V4369.2z"/><path d="M1614,4472.6c-55.5-70.8-51.7-162.7,9.6-220.1c45.9-42.1,65.1-45.9,298.6-51.7c287.1-7.7,365.6,1.9,419.2,55.5c53.6,53.6,49.8,170.4-7.7,223.9c-42.1,40.2-63.2,42.1-361.8,42.1h-319.6L1614,4472.6z"/><path d="M2597.9,4474.5c-61.3-59.3-61.3-143.6-1.9-214.4c45.9-53.6,45.9-53.6,327.3-59.3c315.8-7.7,377.1,5.7,423,95.7c23,44,24.9,68.9,9.6,114.8c-36.4,103.4-59.3,109.1-400,111C2649.5,4522.3,2643.8,4522.3,2597.9,4474.5z"/><path d="M6514,4472.6c-55.5-70.8-51.7-162.7,9.6-220.1c45.9-44,63.2-45.9,317.7-51.7c296.7-7.7,342.6-1.9,398.1,53.6s51.7,172.3-5.7,225.9c-42.1,40.2-63.2,42.1-361.8,42.1h-319.7L6514,4472.6z"/><path d="M7497.9,4474.5c-61.3-59.3-61.3-143.6-1.9-214.4c45.9-53.6,45.9-53.6,327.3-59.3c315.8-7.7,377.1,5.7,423,95.7c34.5,68.9,23,134-34.4,187.6c-38.3,34.4-67,38.3-354.1,38.3C7549.5,4522.3,7543.8,4522.3,7497.9,4474.5z"/><path d="M9140.1,3174.8c-53.6-45.9-53.6-45.9-59.3-327.3c-7.7-323.5,7.6-382.8,103.3-423c70.8-28.7,111-21.1,176.1,36.4c40.2,38.3,42.1,51.7,42.1,352.2c0,308.2,0,313.9-47.9,359.8C9295.2,3234.2,9210.9,3234.2,9140.1,3174.8z"/><path d="M712.5,3054.3c-15.3-5.7-47.9-28.7-70.8-49.8c-42.1-38.3-44-51.7-44-352.2c0-308.2,0-313.9,47.9-359.8c59.3-61.3,143.6-61.3,214.4-1.9c53.6,45.9,53.6,45.9,59.3,327.3c7.7,313.9-7.7,377.1-93.8,421.1C768,3069.6,758.4,3071.5,712.5,3054.3z"/><path d="M9140.1,2198.7l-53.6-45.9l-5.7-294.8c-5.7-321.6,5.7-369.4,99.5-413.4c61.2-30.6,132.1-17.2,183.7,34.4c34.5,34.4,38.3,65.1,38.3,354.1c0,312,0,317.7-47.9,363.7C9295.2,2258,9210.9,2258,9140.1,2198.7z"/><path d="M639.8,2028.3c-40.2-42.1-42.1-63.2-42.1-361.8v-319.6l49.8-38.3c70.8-55.5,162.7-51.7,220.1,9.6c42.1,45.9,45.9,65.1,51.7,298.6c7.7,292.8-1.9,365.6-57.4,417.3C802.5,2087.7,693.4,2085.7,639.8,2028.3z"/><path d="M9172.7,1243.6c-74.7-38.3-95.7-101.5-95.7-294.8v-178h-239.3h-239.3V646.4c-1.9-68.9-1.9-310.1-1.9-535.9c0-225.9,0-463.2,1.9-526.4v-114.8h237.4H9075l5.7-275.6c5.7-262.2,7.6-279.4,51.7-325.4c57.4-61.2,149.3-65.1,220.1-9.6l49.8,38.3V-816v285.2h248.8H9900V120v650.8h-248.8h-248.8v189.5c0,222-5.7,243.1-78.5,279.5C9258.8,1274.2,9233.9,1274.2,9172.7,1243.6z M9574.6,120v-325.4h-325.4h-325.4V120v325.4h325.4h325.4V120z"/><path d="M647.4,1056c-44-34.5-49.8-51.7-49.8-162.7V770.8H348.8H100V120v-650.8h248.8c224,0,248.8-3.8,248.8-32.5c1.9-51.7,45.9-99.5,111-122.5c76.6-26.8,160.8,15.3,195.2,97.6l23,57.4h237.3h237.3V120v650.8h-237.3H926.9l-7.7,114.8c-5.7,86.1-19.1,126.3-53.6,162.7C810.1,1107.7,718.2,1111.5,647.4,1056z M1076.2,120v-325.4H750.8H425.4V120v325.4h325.4h325.4V120z"/><path d="M683.8-877.2c-80.4-45.9-86.1-70.8-86.1-392.4c0-350.3,11.5-382.8,135.9-402c55.5-9.6,78.5-1.9,124.4,36.4l55.5,47.9v317.7c0,290.9-3.8,319.6-38.3,354.1C827.3-867.6,733.6-848.5,683.8-877.2z"/><path d="M9132.5-1403.6c-44-45.9-45.9-63.2-51.7-317.7c-7.7-296.7-1.9-342.6,53.6-398.1s172.3-51.7,225.9,5.7c40.2,42.1,42.1,63.2,42.1,356c0,304.3-1.9,310.1-47.9,356C9291.3-1336.6,9195.6-1336.6,9132.5-1403.6z"/><path d="M712.5-1845.7c-15.3-5.7-47.9-28.7-70.8-49.8c-42.1-38.3-44-51.7-44-352.2c0-308.2,0-313.9,47.9-359.8c59.3-61.3,143.6-61.3,214.4-1.9c53.6,45.9,53.6,45.9,59.3,327.3c7.7,323.5-7.7,382.8-103.4,423c-36.4,15.3-67,26.8-68.9,24.9C743.1-1834.2,727.8-1840,712.5-1845.7z"/><path d="M9140.1-2375.9c-53.6-45.9-53.6-45.9-59.3-327.3c-7.7-315.8,5.7-377.1,95.7-423c44-23,68.9-24.9,114.8-9.6c103.3,36.4,109.1,59.3,111,400c0,306.3,0,312-47.9,357.9C9295.2-2316.6,9210.9-2316.6,9140.1-2375.9z"/><path d="M639.8-2871.7c-38.3-40.2-42.1-67-45.9-319.6l-5.7-277.5l-243.1-5.7l-245-5.7v-648.9V-4780h650.8h650.8v312c1.9,235.4,5.7,300.5,23,271.8c44-80.4,68.9-86.1,390.5-86.1c350.3,0,382.8,11.5,402,135.9c9.6,55.5,1.9,78.5-36.4,124.4l-47.9,55.5h-319.7h-319.7l-45.9-53.6l-45.9-53.6v296.7v298.6l-99.5,1.9c-55.5,1.9-164.6,1.9-239.3-1.9l-139.7-3.8v262.2c0,262.2-11.5,319.6-74.6,367.5C796.7-2812.3,685.7-2821.9,639.8-2871.7z M1076.2-4129.2v-325.4H750.8H425.4v325.4v325.4h325.4h325.4V-4129.2z"/><path d="M9172.7-3331.1c-26.8-13.4-59.3-51.7-74.7-86.1l-28.7-61.3h-235.4h-235.4v-239.3V-3957h-97.6c-155,0-225.9-55.5-227.8-174.2c0-101.5,59.3-147.4,201-155l114.8-5.7l5.7-243.1l5.7-245h648.9H9900v650.8v650.8h-241.2h-239.3l-21.1,57.4c-19.1,55.5-99.5,114.8-153.1,114.8C9232-3306.2,9199.5-3317.6,9172.7-3331.1z M9574.6-4129.2v-325.4h-325.4h-325.4v325.4v325.4h325.4h325.4V-4129.2z"/><path d="M4680.3-3474.6l-331.1-3.8v-650.8V-4780H5000h650.8v248.8v248.8h201c174.2,0,206.7,5.7,239.3,38.3c51.7,51.7,65.1,122.5,34.5,183.7c-38.3,82.3-99.5,103.4-296.7,103.4h-178v239.3v239.3l-118.7,1.9c-67,0-210.5,1.9-321.6,3.8C5099.5-3470.8,4860.3-3470.8,4680.3-3474.6z M5325.4-4129.2v-325.4H5000h-325.4v325.4v325.4H5000h325.4V-4129.2z"/><path d="M2471.5-3985.7c-55.5-30.6-99.5-126.3-80.4-178c5.7-17.2,28.7-51.7,49.8-74.6c38.3-42.1,51.7-44,352.2-44c308.2,0,313.9,0,359.8,47.9c61.3,59.3,61.3,143.6,1.9,214.4l-45.9,53.6l-294.8,3.8C2584.4-3958.9,2509.8-3962.7,2471.5-3985.7z"/><path d="M3432.4-4006.7c-76.6-63.2-82.3-170.4-15.3-233.5c42.1-40.2,63.2-42.1,359.8-42.1c306.2,0,317.7,1.9,357.9,44c65.1,68.9,57.4,170.4-17.2,231.6c-57.4,47.9-65.1,49.8-342.6,49.8S3489.8-3958.9,3432.4-4006.7z"/><path d="M6397.3-3981.8c-99.5-51.7-118.7-181.8-38.3-262.2c34.5-34.5,65.1-38.3,352.2-38.3c354.1,0,386.6,11.5,405.8,135.9c9.6,55.5,1.9,78.5-36.4,124.4l-47.9,55.5l-294.8,5.7C6525.5-3957,6431.7-3962.7,6397.3-3981.8z"/><path d="M7371.5-3985.7c-55.5-30.6-99.5-126.3-80.4-178c5.7-17.2,28.7-51.7,49.8-74.6c38.3-42.1,51.7-44,352.2-44c308.2,0,313.9,0,359.8,47.9c61.3,59.3,61.3,143.6,1.9,214.4l-45.9,53.6l-294.8,3.8C7484.5-3958.9,7409.8-3962.7,7371.5-3985.7z"/></g></g>
</svg>