<?xml version="1.0" encoding="utf-8"?>
<!-- Svg Vector Icons : http://www.onlinewebfonts.com/icon -->
<!DOCTYPE svg PUBLIC "-//W3C//DTD SVG 1.1//EN" "http://www.w3.org/Graphics/SVG/1.1/DTD/svg11.dtd">
<svg version="1.1" xmlns="http://www.w3.org/2000/svg" xmlns:xlink="http://www.w3.org/1999/xlink" x="0px" y="0px" viewBox="0 0 1000 1000" enable-background="new 0 0 1000 1000" xml:space="preserve">
 <metadata>Svg Vector Icons : http://www.onlinewebfonts.com/icon</metadata>

 <g>
  <title>background</title>
  <rect fill="none" id="canvas_background" height="402" width="582" y="-1" x="-1"/>
 </g>
 <g>
  <title>Layer 1</title>
  <g id="svg_1">
   <g id="svg_2" transform="translate(0,512) scale(0.10000000149011612,-0.10000000149011612) " fill="#fff">
    <path id="svg_3" d="m100,4369.2l0,-648.9l245,-5.7l243.1,-5.7l9.6,-206.7c7.7,-179.9 15.3,-212.5 47.9,-235.4c93.8,-68.9 202.9,-47.9 252.7,49.8c13.4,28.7 24.9,122.5 24.9,225.9l0,176.1l239.3,0l239.3,0l0,650.8l0,650.6l-651,0l-650.8,0l0,-650.8zm976.2,0l0,-325.4l-325.4,0l-325.4,0l0,325.4l0,325.4l325.4,0l325.4,0l0,-325.4z"/>
    <path id="svg_4" d="m4349.2,4721.4l0,-300.5l-47.9,51.7l-45.9,49.8l-317.7,0c-289,0 -319.7,-3.8 -354.1,-38.3c-51.7,-51.7 -65.1,-122.5 -34.4,-183.8c44,-93.8 91.9,-105.3 413.4,-99.5l294.8,5.7l45.9,53.6l45.9,53.6l0,-296.7l0,-298.6l650.8,0l650.8,0l0,237.3l0,239.3l275.6,5.7c262.2,5.7 279.4,7.7 325.4,51.7c61.2,57.4 65.1,149.3 9.6,220.1l-38.3,49.8l-287.1,0l-285.2,0l0,248.8l0,248.9l-650.8,0l-650.8,0l0,-298.6zm976.2,-352.2l0,-325.4l-325.4,0l-325.4,0l0,325.4l0,325.4l325.4,0l325.4,0l0,-325.4z"/>
    <path id="svg_5" d="m8598.4,4778.8l0,-239.3l-57.4,-21.1c-151.2,-51.7 -139.7,-264.1 15.3,-310.1c40.2,-13.4 42.1,-21.1 42.1,-252.7l0,-237.3l239.3,0l239.3,0l0,-103.4c0,-139.7 63.2,-222 170.4,-222c107.2,0 151.2,57.4 158.9,201l5.7,114.8l245,5.7l243.1,5.7l0,648.9l0,651l-650.8,0l-650.8,0l0,-241.2l-0.1,0zm976.2,-409.6l0,-325.4l-325.4,0l-325.4,0l0,325.4l0,325.4l325.4,0l325.4,0l0,-325.4z"/>
    <path id="svg_6" d="m1614,4472.6c-55.5,-70.8 -51.7,-162.7 9.6,-220.1c45.9,-42.1 65.1,-45.9 298.6,-51.7c287.1,-7.7 365.6,1.9 419.2,55.5c53.6,53.6 49.8,170.4 -7.7,223.9c-42.1,40.2 -63.2,42.1 -361.8,42.1l-319.6,0l-38.3,-49.7z"/>
    <path id="svg_7" d="m2597.9,4474.5c-61.3,-59.3 -61.3,-143.6 -1.9,-214.4c45.9,-53.6 45.9,-53.6 327.3,-59.3c315.8,-7.7 377.1,5.7 423,95.7c23,44 24.9,68.9 9.6,114.8c-36.4,103.4 -59.3,109.1 -400,111c-306.4,0 -312.1,0 -358,-47.8z"/>
    <path id="svg_8" d="m6514,4472.6c-55.5,-70.8 -51.7,-162.7 9.6,-220.1c45.9,-44 63.2,-45.9 317.7,-51.7c296.7,-7.7 342.6,-1.9 398.1,53.6s51.7,172.3 -5.7,225.9c-42.1,40.2 -63.2,42.1 -361.8,42.1l-319.7,0l-38.2,-49.8z"/>
    <path id="svg_9" d="m7497.9,4474.5c-61.3,-59.3 -61.3,-143.6 -1.9,-214.4c45.9,-53.6 45.9,-53.6 327.3,-59.3c315.8,-7.7 377.1,5.7 423,95.7c34.5,68.9 23,134 -34.4,187.6c-38.3,34.4 -67,38.3 -354.1,38.3c-308.3,-0.1 -314,-0.1 -359.9,-47.9z"/>
    <path id="svg_10" d="m9140.1,3174.8c-53.6,-45.9 -53.6,-45.9 -59.3,-327.3c-7.7,-323.5 7.6,-382.8 103.3,-423c70.8,-28.7 111,-21.1 176.1,36.4c40.2,38.3 42.1,51.7 42.1,352.2c0,308.2 0,313.9 -47.9,359.8c-59.2,61.3 -143.5,61.3 -214.3,1.9z"/>
    <path id="svg_11" d="m712.5,3054.3c-15.3,-5.7 -47.9,-28.7 -70.8,-49.8c-42.1,-38.3 -44,-51.7 -44,-352.2c0,-308.2 0,-313.9 47.9,-359.8c59.3,-61.3 143.6,-61.3 214.4,-1.9c53.6,45.9 53.6,45.9 59.3,327.3c7.7,313.9 -7.7,377.1 -93.8,421.1c-57.5,30.6 -67.1,32.5 -113,15.3z"/>
    <path id="svg_12" d="m9140.1,2198.7l-53.6,-45.9l-5.7,-294.8c-5.7,-321.6 5.7,-369.4 99.5,-413.4c61.2,-30.6 132.1,-17.2 183.7,34.4c34.5,34.4 38.3,65.1 38.3,354.1c0,312 0,317.7 -47.9,363.7c-59.2,61.2 -143.5,61.2 -214.3,1.9z"/>
    <path id="svg_13" d="m639.8,2028.3c-40.2,-42.1 -42.1,-63.2 -42.1,-361.8l0,-319.6l49.8,-38.3c70.8,-55.5 162.7,-51.7 220.1,9.6c42.1,45.9 45.9,65.1 51.7,298.6c7.7,292.8 -1.9,365.6 -57.4,417.3c-59.4,53.6 -168.5,51.6 -222.1,-5.8z"/>
    <path id="svg_14" d="m9172.7,1243.6c-74.7,-38.3 -95.7,-101.5 -95.7,-294.8l0,-178l-239.3,0l-239.3,0l0,-124.4c-1.9,-68.9 -1.9,-310.1 -1.9,-535.9c0,-225.9 0,-463.2 1.9,-526.4l0,-114.8l237.4,0l239.2,0l5.7,-275.6c5.7,-262.2 7.6,-279.4 51.7,-325.4c57.4,-61.2 149.3,-65.1 220.1,-9.6l49.8,38.3l0,287l0,285.2l248.8,0l248.9,0l0,650.8l0,650.8l-248.8,0l-248.8,0l0,189.5c0,222 -5.7,243.1 -78.5,279.5c-65.1,34.4 -90,34.4 -151.2,3.8zm401.9,-1123.6l0,-325.4l-325.4,0l-325.4,0l0,325.4l0,325.4l325.4,0l325.4,0l0,-325.4z"/>
    <path id="svg_15" d="m647.4,1056c-44,-34.5 -49.8,-51.7 -49.8,-162.7l0,-122.5l-248.8,0l-248.8,0l0,-650.8l0,-650.8l248.8,0c224,0 248.8,-3.8 248.8,-32.5c1.9,-51.7 45.9,-99.5 111,-122.5c76.6,-26.8 160.8,15.3 195.2,97.6l23,57.4l237.3,0l237.3,0l0,650.8l0,650.8l-237.3,0l-237.2,0l-7.7,114.8c-5.7,86.1 -19.1,126.3 -53.6,162.7c-55.5,59.4 -147.4,63.2 -218.2,7.7zm428.8,-936l0,-325.4l-325.4,0l-325.4,0l0,325.4l0,325.4l325.4,0l325.4,0l0,-325.4z"/>
    <path id="svg_16" d="m683.8,-877.2c-80.4,-45.9 -86.1,-70.8 -86.1,-392.4c0,-350.3 11.5,-382.8 135.9,-402c55.5,-9.6 78.5,-1.9 124.4,36.4l55.5,47.9l0,317.7c0,290.9 -3.8,319.6 -38.3,354.1c-47.9,47.9 -141.6,67 -191.4,38.3z"/>
    <path id="svg_17" d="m9132.5,-1403.6c-44,-45.9 -45.9,-63.2 -51.7,-317.7c-7.7,-296.7 -1.9,-342.6 53.6,-398.1s172.3,-51.7 225.9,5.7c40.2,42.1 42.1,63.2 42.1,356c0,304.3 -1.9,310.1 -47.9,356c-63.2,65.1 -158.9,65.1 -222,-1.9z"/>
    <path id="svg_18" d="m712.5,-1845.7c-15.3,-5.7 -47.9,-28.7 -70.8,-49.8c-42.1,-38.3 -44,-51.7 -44,-352.2c0,-308.2 0,-313.9 47.9,-359.8c59.3,-61.3 143.6,-61.3 214.4,-1.9c53.6,45.9 53.6,45.9 59.3,327.3c7.7,323.5 -7.7,382.8 -103.4,423c-36.4,15.3 -67,26.8 -68.9,24.9c-3.9,0 -19.2,-5.8 -34.5,-11.5z"/>
    <path id="svg_19" d="m9140.1,-2375.9c-53.6,-45.9 -53.6,-45.9 -59.3,-327.3c-7.7,-315.8 5.7,-377.1 95.7,-423c44,-23 68.9,-24.9 114.8,-9.6c103.3,36.4 109.1,59.3 111,400c0,306.3 0,312 -47.9,357.9c-59.2,61.3 -143.5,61.3 -214.3,2z"/>
    <path id="svg_20" d="m639.8,-2871.7c-38.3,-40.2 -42.1,-67 -45.9,-319.6l-5.7,-277.5l-243.1,-5.7l-245,-5.7l0,-648.9l0,-650.9l650.8,0l650.8,0l0,312c1.9,235.4 5.7,300.5 23,271.8c44,-80.4 68.9,-86.1 390.5,-86.1c350.3,0 382.8,11.5 402,135.9c9.6,55.5 1.9,78.5 -36.4,124.4l-47.9,55.5l-319.7,0l-319.7,0l-45.9,-53.6l-45.9,-53.6l0,296.7l0,298.6l-99.5,1.9c-55.5,1.9 -164.6,1.9 -239.3,-1.9l-139.7,-3.8l0,262.2c0,262.2 -11.5,319.6 -74.6,367.5c-51.9,40.2 -162.9,30.6 -208.8,-19.2zm436.4,-1257.5l0,-325.4l-325.4,0l-325.4,0l0,325.4l0,325.4l325.4,0l325.4,0l0,-325.4z"/>
    <path id="svg_21" d="m9172.7,-3331.1c-26.8,-13.4 -59.3,-51.7 -74.7,-86.1l-28.7,-61.3l-235.4,0l-235.4,0l0,-239.3l0,-239.2l-97.6,0c-155,0 -225.9,-55.5 -227.8,-174.2c0,-101.5 59.3,-147.4 201,-155l114.8,-5.7l5.7,-243.1l5.7,-245l648.9,0l650.8,0l0,650.8l0,650.8l-241.2,0l-239.3,0l-21.1,57.4c-19.1,55.5 -99.5,114.8 -153.1,114.8c-13.3,0 -45.8,-11.4 -72.6,-24.9zm401.9,-798.1l0,-325.4l-325.4,0l-325.4,0l0,325.4l0,325.4l325.4,0l325.4,0l0,-325.4z"/>
    <path id="svg_22" d="m4680.3,-3474.6l-331.1,-3.8l0,-650.8l0,-650.8l650.8,0l650.8,0l0,248.8l0,248.8l201,0c174.2,0 206.7,5.7 239.3,38.3c51.7,51.7 65.1,122.5 34.5,183.7c-38.3,82.3 -99.5,103.4 -296.7,103.4l-178,0l0,239.3l0,239.3l-118.7,1.9c-67,0 -210.5,1.9 -321.6,3.8c-111.1,1.9 -350.3,1.9 -530.3,-1.9zm645.1,-654.6l0,-325.4l-325.4,0l-325.4,0l0,325.4l0,325.4l325.4,0l325.4,0l0,-325.4z"/>
    <path id="svg_23" d="m2471.5,-3985.7c-55.5,-30.6 -99.5,-126.3 -80.4,-178c5.7,-17.2 28.7,-51.7 49.8,-74.6c38.3,-42.1 51.7,-44 352.2,-44c308.2,0 313.9,0 359.8,47.9c61.3,59.3 61.3,143.6 1.9,214.4l-45.9,53.6l-294.8,3.8c-229.7,3.7 -304.3,-0.1 -342.6,-23.1z"/>
    <path id="svg_24" d="m3432.4,-4006.7c-76.6,-63.2 -82.3,-170.4 -15.3,-233.5c42.1,-40.2 63.2,-42.1 359.8,-42.1c306.2,0 317.7,1.9 357.9,44c65.1,68.9 57.4,170.4 -17.2,231.6c-57.4,47.9 -65.1,49.8 -342.6,49.8s-285.2,-2 -342.6,-49.8z"/>
    <path id="svg_25" d="m6397.3,-3981.8c-99.5,-51.7 -118.7,-181.8 -38.3,-262.2c34.5,-34.5 65.1,-38.3 352.2,-38.3c354.1,0 386.6,11.5 405.8,135.9c9.6,55.5 1.9,78.5 -36.4,124.4l-47.9,55.5l-294.8,5.7c-212.4,3.8 -306.2,-1.9 -340.6,-21z"/>
    <path id="svg_26" d="m7371.5,-3985.7c-55.5,-30.6 -99.5,-126.3 -80.4,-178c5.7,-17.2 28.7,-51.7 49.8,-74.6c38.3,-42.1 51.7,-44 352.2,-44c308.2,0 313.9,0 359.8,47.9c61.3,59.3 61.3,143.6 1.9,214.4l-45.9,53.6l-294.8,3.8c-229.6,3.7 -304.3,-0.1 -342.6,-23.1z"/>
   </g>
  </g>
  <text stroke="#000" transform="matrix(43.58684814292019,0,0,36.082065203588506,-12022.970639410236,-14305.358220039205) " xml:space="preserve" text-anchor="start" font-family="Helvetica, Arial, sans-serif" font-size="24" id="svg_27" y="418.666513" x="279.332902" stroke-width="0" fill="#fff">X</text>
 </g>
</svg>